<?xml version="1.0" standalone="no"?>
<!DOCTYPE svg PUBLIC "-//W3C//DTD SVG 1.1//EN" "http://www.w3.org/Graphics/SVG/1.1/DTD/svg11.dtd">
<svg width="500px" height="500px" version="1.1" xmlns="http://www.w3.org/2000/svg" xmlns:xlink="http://www.w3.org/1999/xlink" xml:space="preserve" style="fill-rule:evenodd;clip-rule:evenodd;stroke-linejoin:round;stroke-miterlimit:1.41421;">
    <g>
        <g id="Layer1">
            <g>
                <g id="Shape">
                    <path d="M134.187,313.651C149.09,313.651 162.752,317.377 174.551,324.207L174.551,48.491L93.2018,48.491L93.2018,324.828C105,317.998 118.662,313.651 134.187,313.651Z" style="fill:#00a69c;"/>
                    <path d="M182.002,395.621C182.002,422.323 160.268,443.436 134.187,443.436C107.484,443.436 85.75,422.323 85.75,395.621C85.75,368.918 107.484,347.184 134.187,347.184C160.268,347.184 182.002,368.918 182.002,395.621Z" style="fill:#00a69c;"/>
                </g>
                <g id="Shape1">
                    <path d="M258.383,365.813L258.383,204.358L206.842,204.358L206.842,133.566L258.383,133.566L258.383,48.491L339.732,48.491L339.732,133.566L402.451,133.566L402.451,204.979L339.732,204.979L339.732,344.7C339.732,364.571 350.289,379.475 368.297,379.475C380.717,379.475 391.895,375.128 396.862,369.539L414.25,431.638C401.83,442.815 380.096,451.509 345.942,451.509C288.19,451.509 258.383,421.702 258.383,365.813Z" style="fill:#00a69c;"/>
                </g>
            </g>
        </g>
    </g>
</svg>
